<mxfile host="app.diagrams.net" modified="2024-04-02T06:51:08.111Z" agent="Mozilla/5.0 (Macintosh; Intel Mac OS X 10_15_7) AppleWebKit/537.36 (KHTML, like Gecko) Chrome/123.0.0.0 Safari/537.36" etag="ISd4pSWmRaAb0giCELbr" version="24.2.1" type="github">
  <diagram name="第 1 页" id="0Z64UIP0_QzllUJv1UUl">
    <mxGraphModel dx="1125" dy="1067" grid="0" gridSize="10" guides="1" tooltips="1" connect="1" arrows="1" fold="1" page="1" pageScale="1" pageWidth="827" pageHeight="1169" math="0" shadow="0">
      <root>
        <mxCell id="0" />
        <mxCell id="1" parent="0" />
        <mxCell id="e3mRQ9NL9h4Ew3IdF5mW-141" value="" style="rounded=1;whiteSpace=wrap;html=1;" vertex="1" parent="1">
          <mxGeometry x="313.5" y="2522" width="159" height="212" as="geometry" />
        </mxCell>
        <mxCell id="e3mRQ9NL9h4Ew3IdF5mW-136" value="" style="rounded=1;whiteSpace=wrap;html=1;" vertex="1" parent="1">
          <mxGeometry x="159" y="205" width="562" height="241" as="geometry" />
        </mxCell>
        <mxCell id="e3mRQ9NL9h4Ew3IdF5mW-1" value="&lt;font style=&quot;font-size: 15px;&quot;&gt;目标检测&lt;/font&gt;" style="rounded=1;whiteSpace=wrap;html=1;" vertex="1" parent="1">
          <mxGeometry x="180" y="312" width="93" height="34" as="geometry" />
        </mxCell>
        <mxCell id="e3mRQ9NL9h4Ew3IdF5mW-2" value="&lt;font style=&quot;font-size: 15px;&quot;&gt;头部姿态推理&lt;/font&gt;" style="rounded=1;whiteSpace=wrap;html=1;" vertex="1" parent="1">
          <mxGeometry x="308" y="246" width="93" height="34" as="geometry" />
        </mxCell>
        <mxCell id="e3mRQ9NL9h4Ew3IdF5mW-3" value="&lt;font style=&quot;font-size: 15px;&quot;&gt;人脸表情推理&lt;/font&gt;" style="rounded=1;whiteSpace=wrap;html=1;" vertex="1" parent="1">
          <mxGeometry x="452" y="244" width="93" height="34" as="geometry" />
        </mxCell>
        <mxCell id="e3mRQ9NL9h4Ew3IdF5mW-4" value="&lt;font style=&quot;font-size: 15px;&quot;&gt;后处理&lt;/font&gt;" style="rounded=1;whiteSpace=wrap;html=1;" vertex="1" parent="1">
          <mxGeometry x="617" y="313" width="93" height="34" as="geometry" />
        </mxCell>
        <mxCell id="e3mRQ9NL9h4Ew3IdF5mW-5" value="&lt;font style=&quot;font-size: 15px;&quot;&gt;身体推理&lt;/font&gt;" style="rounded=1;whiteSpace=wrap;html=1;" vertex="1" parent="1">
          <mxGeometry x="452" y="312" width="93" height="34" as="geometry" />
        </mxCell>
        <mxCell id="e3mRQ9NL9h4Ew3IdF5mW-6" value="&lt;font style=&quot;font-size: 15px;&quot;&gt;手部推理&lt;/font&gt;" style="rounded=1;whiteSpace=wrap;html=1;" vertex="1" parent="1">
          <mxGeometry x="452" y="377" width="93" height="34" as="geometry" />
        </mxCell>
        <mxCell id="e3mRQ9NL9h4Ew3IdF5mW-7" value="" style="endArrow=classic;html=1;rounded=0;exitX=1;exitY=0.5;exitDx=0;exitDy=0;entryX=0;entryY=0.5;entryDx=0;entryDy=0;" edge="1" parent="1" source="e3mRQ9NL9h4Ew3IdF5mW-1" target="e3mRQ9NL9h4Ew3IdF5mW-5">
          <mxGeometry width="50" height="50" relative="1" as="geometry">
            <mxPoint x="548" y="423" as="sourcePoint" />
            <mxPoint x="598" y="373" as="targetPoint" />
          </mxGeometry>
        </mxCell>
        <mxCell id="e3mRQ9NL9h4Ew3IdF5mW-10" value="" style="edgeStyle=elbowEdgeStyle;elbow=horizontal;endArrow=classic;html=1;curved=0;rounded=0;endSize=8;startSize=8;entryX=0;entryY=0.5;entryDx=0;entryDy=0;exitX=1;exitY=0.5;exitDx=0;exitDy=0;" edge="1" parent="1" source="e3mRQ9NL9h4Ew3IdF5mW-1" target="e3mRQ9NL9h4Ew3IdF5mW-2">
          <mxGeometry width="50" height="50" relative="1" as="geometry">
            <mxPoint x="255" y="337" as="sourcePoint" />
            <mxPoint x="305" y="287" as="targetPoint" />
          </mxGeometry>
        </mxCell>
        <mxCell id="e3mRQ9NL9h4Ew3IdF5mW-11" value="" style="edgeStyle=elbowEdgeStyle;elbow=horizontal;endArrow=classic;html=1;curved=0;rounded=0;endSize=8;startSize=8;entryX=0;entryY=0.5;entryDx=0;entryDy=0;exitX=1;exitY=0.5;exitDx=0;exitDy=0;" edge="1" parent="1" source="e3mRQ9NL9h4Ew3IdF5mW-1" target="e3mRQ9NL9h4Ew3IdF5mW-6">
          <mxGeometry width="50" height="50" relative="1" as="geometry">
            <mxPoint x="257" y="338" as="sourcePoint" />
            <mxPoint x="598" y="373" as="targetPoint" />
            <Array as="points">
              <mxPoint x="292" y="364" />
              <mxPoint x="283" y="372" />
            </Array>
          </mxGeometry>
        </mxCell>
        <mxCell id="e3mRQ9NL9h4Ew3IdF5mW-12" value="" style="endArrow=classic;html=1;rounded=0;exitX=1;exitY=0.5;exitDx=0;exitDy=0;entryX=0;entryY=0.5;entryDx=0;entryDy=0;" edge="1" parent="1" source="e3mRQ9NL9h4Ew3IdF5mW-2" target="e3mRQ9NL9h4Ew3IdF5mW-3">
          <mxGeometry width="50" height="50" relative="1" as="geometry">
            <mxPoint x="548" y="423" as="sourcePoint" />
            <mxPoint x="598" y="373" as="targetPoint" />
          </mxGeometry>
        </mxCell>
        <mxCell id="e3mRQ9NL9h4Ew3IdF5mW-13" value="" style="edgeStyle=elbowEdgeStyle;elbow=horizontal;endArrow=classic;html=1;curved=0;rounded=0;endSize=8;startSize=8;entryX=0;entryY=0.5;entryDx=0;entryDy=0;exitX=1;exitY=0.5;exitDx=0;exitDy=0;" edge="1" parent="1" source="e3mRQ9NL9h4Ew3IdF5mW-6" target="e3mRQ9NL9h4Ew3IdF5mW-4">
          <mxGeometry width="50" height="50" relative="1" as="geometry">
            <mxPoint x="545" y="405" as="sourcePoint" />
            <mxPoint x="595" y="355" as="targetPoint" />
          </mxGeometry>
        </mxCell>
        <mxCell id="e3mRQ9NL9h4Ew3IdF5mW-14" value="" style="endArrow=classic;html=1;rounded=0;exitX=1;exitY=0.5;exitDx=0;exitDy=0;entryX=0;entryY=0.5;entryDx=0;entryDy=0;" edge="1" parent="1" source="e3mRQ9NL9h4Ew3IdF5mW-5" target="e3mRQ9NL9h4Ew3IdF5mW-4">
          <mxGeometry width="50" height="50" relative="1" as="geometry">
            <mxPoint x="548" y="423" as="sourcePoint" />
            <mxPoint x="598" y="373" as="targetPoint" />
          </mxGeometry>
        </mxCell>
        <mxCell id="e3mRQ9NL9h4Ew3IdF5mW-15" value="" style="edgeStyle=elbowEdgeStyle;elbow=horizontal;endArrow=classic;html=1;curved=0;rounded=0;endSize=8;startSize=8;exitX=1;exitY=0.5;exitDx=0;exitDy=0;entryX=0;entryY=0.5;entryDx=0;entryDy=0;" edge="1" parent="1" source="e3mRQ9NL9h4Ew3IdF5mW-3" target="e3mRQ9NL9h4Ew3IdF5mW-4">
          <mxGeometry width="50" height="50" relative="1" as="geometry">
            <mxPoint x="548" y="423" as="sourcePoint" />
            <mxPoint x="598" y="373" as="targetPoint" />
          </mxGeometry>
        </mxCell>
        <mxCell id="e3mRQ9NL9h4Ew3IdF5mW-17" value="&lt;font size=&quot;1&quot; style=&quot;&quot;&gt;&lt;b style=&quot;font-size: 18px;&quot;&gt;主控模块&lt;/b&gt;&lt;/font&gt;" style="rounded=1;whiteSpace=wrap;html=1;" vertex="1" parent="1">
          <mxGeometry x="157" y="555" width="120" height="60" as="geometry" />
        </mxCell>
        <mxCell id="e3mRQ9NL9h4Ew3IdF5mW-18" value="&lt;font size=&quot;1&quot; style=&quot;&quot;&gt;&lt;b style=&quot;font-size: 18px;&quot;&gt;渲染模块&lt;/b&gt;&lt;/font&gt;" style="rounded=1;whiteSpace=wrap;html=1;" vertex="1" parent="1">
          <mxGeometry x="602" y="555" width="120" height="60" as="geometry" />
        </mxCell>
        <mxCell id="e3mRQ9NL9h4Ew3IdF5mW-19" value="&lt;font size=&quot;1&quot; style=&quot;&quot;&gt;&lt;b style=&quot;font-size: 18px;&quot;&gt;三方系统&lt;/b&gt;&lt;/font&gt;" style="rounded=1;whiteSpace=wrap;html=1;" vertex="1" parent="1">
          <mxGeometry x="157" y="683" width="573" height="60" as="geometry" />
        </mxCell>
        <mxCell id="e3mRQ9NL9h4Ew3IdF5mW-20" value="" style="shape=flexArrow;endArrow=classic;startArrow=classic;html=1;rounded=0;entryX=0.5;entryY=1;entryDx=0;entryDy=0;exitX=0.108;exitY=0.033;exitDx=0;exitDy=0;exitPerimeter=0;" edge="1" parent="1" source="e3mRQ9NL9h4Ew3IdF5mW-19" target="e3mRQ9NL9h4Ew3IdF5mW-17">
          <mxGeometry width="100" height="100" relative="1" as="geometry">
            <mxPoint x="319.5" y="683" as="sourcePoint" />
            <mxPoint x="419.5" y="583" as="targetPoint" />
          </mxGeometry>
        </mxCell>
        <mxCell id="e3mRQ9NL9h4Ew3IdF5mW-21" value="" style="endArrow=classic;html=1;rounded=0;exitX=0.5;exitY=0;exitDx=0;exitDy=0;entryX=0.092;entryY=0.996;entryDx=0;entryDy=0;entryPerimeter=0;" edge="1" parent="1">
          <mxGeometry width="50" height="50" relative="1" as="geometry">
            <mxPoint x="234" y="555" as="sourcePoint" />
            <mxPoint x="231.26800000000003" y="446.05999999999995" as="targetPoint" />
          </mxGeometry>
        </mxCell>
        <mxCell id="e3mRQ9NL9h4Ew3IdF5mW-22" value="" style="endArrow=classic;html=1;rounded=0;exitX=1;exitY=0.5;exitDx=0;exitDy=0;entryX=0;entryY=0.5;entryDx=0;entryDy=0;" edge="1" parent="1" source="e3mRQ9NL9h4Ew3IdF5mW-17" target="e3mRQ9NL9h4Ew3IdF5mW-18">
          <mxGeometry width="50" height="50" relative="1" as="geometry">
            <mxPoint x="395" y="639" as="sourcePoint" />
            <mxPoint x="484" y="531" as="targetPoint" />
          </mxGeometry>
        </mxCell>
        <mxCell id="e3mRQ9NL9h4Ew3IdF5mW-23" value="" style="shape=flexArrow;endArrow=classic;startArrow=classic;html=1;rounded=0;entryX=0;entryY=0.25;entryDx=0;entryDy=0;exitX=1;exitY=0.25;exitDx=0;exitDy=0;" edge="1" parent="1" source="e3mRQ9NL9h4Ew3IdF5mW-17" target="e3mRQ9NL9h4Ew3IdF5mW-18">
          <mxGeometry width="100" height="100" relative="1" as="geometry">
            <mxPoint x="328" y="567" as="sourcePoint" />
            <mxPoint x="428" y="467" as="targetPoint" />
          </mxGeometry>
        </mxCell>
        <mxCell id="e3mRQ9NL9h4Ew3IdF5mW-24" value="" style="shape=flexArrow;endArrow=classic;startArrow=classic;html=1;rounded=0;entryX=0.041;entryY=1.004;entryDx=0;entryDy=0;entryPerimeter=0;" edge="1" parent="1">
          <mxGeometry width="100" height="100" relative="1" as="geometry">
            <mxPoint x="203" y="553" as="sourcePoint" />
            <mxPoint x="201.73900000000003" y="447.94000000000005" as="targetPoint" />
          </mxGeometry>
        </mxCell>
        <mxCell id="e3mRQ9NL9h4Ew3IdF5mW-25" value="" style="shape=flexArrow;endArrow=classic;startArrow=classic;html=1;rounded=0;" edge="1" parent="1">
          <mxGeometry width="100" height="100" relative="1" as="geometry">
            <mxPoint x="656" y="552" as="sourcePoint" />
            <mxPoint x="655" y="445" as="targetPoint" />
          </mxGeometry>
        </mxCell>
        <mxCell id="e3mRQ9NL9h4Ew3IdF5mW-26" value="&lt;font size=&quot;1&quot; style=&quot;&quot;&gt;&lt;b style=&quot;font-size: 18px;&quot;&gt;动捕模块&lt;/b&gt;&lt;/font&gt;" style="text;html=1;align=center;verticalAlign=middle;whiteSpace=wrap;rounded=0;" vertex="1" parent="1">
          <mxGeometry x="618" y="226" width="75.5" height="30" as="geometry" />
        </mxCell>
        <mxCell id="e3mRQ9NL9h4Ew3IdF5mW-27" value="控制流" style="text;html=1;align=center;verticalAlign=middle;whiteSpace=wrap;rounded=0;" vertex="1" parent="1">
          <mxGeometry x="238" y="478" width="60" height="30" as="geometry" />
        </mxCell>
        <mxCell id="e3mRQ9NL9h4Ew3IdF5mW-28" value="控制流" style="text;html=1;align=center;verticalAlign=middle;whiteSpace=wrap;rounded=0;" vertex="1" parent="1">
          <mxGeometry x="404" y="585" width="60" height="30" as="geometry" />
        </mxCell>
        <mxCell id="e3mRQ9NL9h4Ew3IdF5mW-29" value="数据流" style="text;html=1;align=center;verticalAlign=middle;whiteSpace=wrap;rounded=0;" vertex="1" parent="1">
          <mxGeometry x="140" y="486" width="60" height="30" as="geometry" />
        </mxCell>
        <mxCell id="e3mRQ9NL9h4Ew3IdF5mW-30" value="数据流" style="text;html=1;align=center;verticalAlign=middle;whiteSpace=wrap;rounded=0;" vertex="1" parent="1">
          <mxGeometry x="662" y="483" width="60" height="30" as="geometry" />
        </mxCell>
        <mxCell id="e3mRQ9NL9h4Ew3IdF5mW-31" value="接口交互" style="text;html=1;align=center;verticalAlign=middle;whiteSpace=wrap;rounded=0;" vertex="1" parent="1">
          <mxGeometry x="228" y="634" width="60" height="30" as="geometry" />
        </mxCell>
        <mxCell id="e3mRQ9NL9h4Ew3IdF5mW-32" value="三方系统" style="shape=umlLifeline;perimeter=lifelinePerimeter;whiteSpace=wrap;html=1;container=1;dropTarget=0;collapsible=0;recursiveResize=0;outlineConnect=0;portConstraint=eastwest;newEdgeStyle={&quot;curved&quot;:0,&quot;rounded&quot;:0};" vertex="1" parent="1">
          <mxGeometry x="61" y="1284" width="100" height="1024" as="geometry" />
        </mxCell>
        <mxCell id="e3mRQ9NL9h4Ew3IdF5mW-39" value="" style="html=1;points=[[0,0,0,0,5],[0,1,0,0,-5],[1,0,0,0,5],[1,1,0,0,-5]];perimeter=orthogonalPerimeter;outlineConnect=0;targetShapes=umlLifeline;portConstraint=eastwest;newEdgeStyle={&quot;curved&quot;:0,&quot;rounded&quot;:0};" vertex="1" parent="e3mRQ9NL9h4Ew3IdF5mW-32">
          <mxGeometry x="44" y="91" width="10" height="40" as="geometry" />
        </mxCell>
        <mxCell id="e3mRQ9NL9h4Ew3IdF5mW-40" value="初始化" style="html=1;align=left;spacingLeft=2;endArrow=block;rounded=0;edgeStyle=orthogonalEdgeStyle;curved=0;rounded=0;" edge="1" target="e3mRQ9NL9h4Ew3IdF5mW-39" parent="e3mRQ9NL9h4Ew3IdF5mW-32">
          <mxGeometry x="0.0118" relative="1" as="geometry">
            <mxPoint x="49" y="71" as="sourcePoint" />
            <Array as="points">
              <mxPoint x="79" y="101" />
            </Array>
            <mxPoint as="offset" />
          </mxGeometry>
        </mxCell>
        <mxCell id="e3mRQ9NL9h4Ew3IdF5mW-44" value="" style="html=1;points=[[0,0,0,0,5],[0,1,0,0,-5],[1,0,0,0,5],[1,1,0,0,-5]];perimeter=orthogonalPerimeter;outlineConnect=0;targetShapes=umlLifeline;portConstraint=eastwest;newEdgeStyle={&quot;curved&quot;:0,&quot;rounded&quot;:0};" vertex="1" parent="e3mRQ9NL9h4Ew3IdF5mW-32">
          <mxGeometry x="44" y="168" width="10" height="398" as="geometry" />
        </mxCell>
        <mxCell id="e3mRQ9NL9h4Ew3IdF5mW-105" value="" style="html=1;points=[[0,0,0,0,5],[0,1,0,0,-5],[1,0,0,0,5],[1,1,0,0,-5]];perimeter=orthogonalPerimeter;outlineConnect=0;targetShapes=umlLifeline;portConstraint=eastwest;newEdgeStyle={&quot;curved&quot;:0,&quot;rounded&quot;:0};" vertex="1" parent="e3mRQ9NL9h4Ew3IdF5mW-32">
          <mxGeometry x="44" y="716" width="10" height="30" as="geometry" />
        </mxCell>
        <mxCell id="e3mRQ9NL9h4Ew3IdF5mW-115" value="" style="html=1;points=[[0,0,0,0,5],[0,1,0,0,-5],[1,0,0,0,5],[1,1,0,0,-5]];perimeter=orthogonalPerimeter;outlineConnect=0;targetShapes=umlLifeline;portConstraint=eastwest;newEdgeStyle={&quot;curved&quot;:0,&quot;rounded&quot;:0};" vertex="1" parent="e3mRQ9NL9h4Ew3IdF5mW-32">
          <mxGeometry x="45" y="797" width="10" height="80" as="geometry" />
        </mxCell>
        <mxCell id="e3mRQ9NL9h4Ew3IdF5mW-126" value="" style="html=1;points=[[0,0,0,0,5],[0,1,0,0,-5],[1,0,0,0,5],[1,1,0,0,-5]];perimeter=orthogonalPerimeter;outlineConnect=0;targetShapes=umlLifeline;portConstraint=eastwest;newEdgeStyle={&quot;curved&quot;:0,&quot;rounded&quot;:0};" vertex="1" parent="e3mRQ9NL9h4Ew3IdF5mW-32">
          <mxGeometry x="45" y="918" width="10" height="80" as="geometry" />
        </mxCell>
        <mxCell id="e3mRQ9NL9h4Ew3IdF5mW-33" value="主控模块" style="shape=umlLifeline;perimeter=lifelinePerimeter;whiteSpace=wrap;html=1;container=1;dropTarget=0;collapsible=0;recursiveResize=0;outlineConnect=0;portConstraint=eastwest;newEdgeStyle={&quot;curved&quot;:0,&quot;rounded&quot;:0};" vertex="1" parent="1">
          <mxGeometry x="211" y="1284" width="100" height="1032" as="geometry" />
        </mxCell>
        <mxCell id="e3mRQ9NL9h4Ew3IdF5mW-41" value="" style="html=1;points=[[0,0,0,0,5],[0,1,0,0,-5],[1,0,0,0,5],[1,1,0,0,-5]];perimeter=orthogonalPerimeter;outlineConnect=0;targetShapes=umlLifeline;portConstraint=eastwest;newEdgeStyle={&quot;curved&quot;:0,&quot;rounded&quot;:0};" vertex="1" parent="e3mRQ9NL9h4Ew3IdF5mW-33">
          <mxGeometry x="43" y="163" width="10" height="128" as="geometry" />
        </mxCell>
        <mxCell id="e3mRQ9NL9h4Ew3IdF5mW-45" value="" style="html=1;points=[[0,0,0,0,5],[0,1,0,0,-5],[1,0,0,0,5],[1,1,0,0,-5]];perimeter=orthogonalPerimeter;outlineConnect=0;targetShapes=umlLifeline;portConstraint=eastwest;newEdgeStyle={&quot;curved&quot;:0,&quot;rounded&quot;:0};" vertex="1" parent="e3mRQ9NL9h4Ew3IdF5mW-33">
          <mxGeometry x="45" y="186" width="10" height="18" as="geometry" />
        </mxCell>
        <mxCell id="e3mRQ9NL9h4Ew3IdF5mW-46" value="创建共享内存" style="html=1;align=left;spacingLeft=2;endArrow=block;rounded=0;edgeStyle=orthogonalEdgeStyle;curved=0;rounded=0;" edge="1" parent="e3mRQ9NL9h4Ew3IdF5mW-33">
          <mxGeometry relative="1" as="geometry">
            <mxPoint x="55" y="165" as="sourcePoint" />
            <Array as="points">
              <mxPoint x="79" y="197" />
            </Array>
            <mxPoint x="54" y="197" as="targetPoint" />
          </mxGeometry>
        </mxCell>
        <mxCell id="e3mRQ9NL9h4Ew3IdF5mW-49" value="" style="html=1;points=[[0,0,0,0,5],[0,1,0,0,-5],[1,0,0,0,5],[1,1,0,0,-5]];perimeter=orthogonalPerimeter;outlineConnect=0;targetShapes=umlLifeline;portConstraint=eastwest;newEdgeStyle={&quot;curved&quot;:0,&quot;rounded&quot;:0};" vertex="1" parent="e3mRQ9NL9h4Ew3IdF5mW-33">
          <mxGeometry x="48" y="242" width="10" height="40" as="geometry" />
        </mxCell>
        <mxCell id="e3mRQ9NL9h4Ew3IdF5mW-50" value="启动socket服务" style="html=1;align=left;spacingLeft=2;endArrow=block;rounded=0;edgeStyle=orthogonalEdgeStyle;curved=0;rounded=0;" edge="1" target="e3mRQ9NL9h4Ew3IdF5mW-49" parent="e3mRQ9NL9h4Ew3IdF5mW-33">
          <mxGeometry relative="1" as="geometry">
            <mxPoint x="53" y="222" as="sourcePoint" />
            <Array as="points">
              <mxPoint x="83" y="252" />
            </Array>
          </mxGeometry>
        </mxCell>
        <mxCell id="e3mRQ9NL9h4Ew3IdF5mW-51" value="" style="html=1;points=[[0,0,0,0,5],[0,1,0,0,-5],[1,0,0,0,5],[1,1,0,0,-5]];perimeter=orthogonalPerimeter;outlineConnect=0;targetShapes=umlLifeline;portConstraint=eastwest;newEdgeStyle={&quot;curved&quot;:0,&quot;rounded&quot;:0};" vertex="1" parent="e3mRQ9NL9h4Ew3IdF5mW-33">
          <mxGeometry x="45" y="307" width="10" height="150" as="geometry" />
        </mxCell>
        <mxCell id="e3mRQ9NL9h4Ew3IdF5mW-75" value="" style="html=1;points=[[0,0,0,0,5],[0,1,0,0,-5],[1,0,0,0,5],[1,1,0,0,-5]];perimeter=orthogonalPerimeter;outlineConnect=0;targetShapes=umlLifeline;portConstraint=eastwest;newEdgeStyle={&quot;curved&quot;:0,&quot;rounded&quot;:0};" vertex="1" parent="e3mRQ9NL9h4Ew3IdF5mW-33">
          <mxGeometry x="45" y="482" width="10" height="80" as="geometry" />
        </mxCell>
        <mxCell id="e3mRQ9NL9h4Ew3IdF5mW-78" value="" style="html=1;points=[[0,0,0,0,5],[0,1,0,0,-5],[1,0,0,0,5],[1,1,0,0,-5]];perimeter=orthogonalPerimeter;outlineConnect=0;targetShapes=umlLifeline;portConstraint=eastwest;newEdgeStyle={&quot;curved&quot;:0,&quot;rounded&quot;:0};" vertex="1" parent="e3mRQ9NL9h4Ew3IdF5mW-33">
          <mxGeometry x="53" y="512" width="10" height="18" as="geometry" />
        </mxCell>
        <mxCell id="e3mRQ9NL9h4Ew3IdF5mW-79" value="参数校验/格式转换" style="html=1;align=left;spacingLeft=2;endArrow=block;rounded=0;edgeStyle=orthogonalEdgeStyle;curved=0;rounded=0;" edge="1" target="e3mRQ9NL9h4Ew3IdF5mW-78" parent="e3mRQ9NL9h4Ew3IdF5mW-33">
          <mxGeometry relative="1" as="geometry">
            <mxPoint x="58" y="492" as="sourcePoint" />
            <Array as="points">
              <mxPoint x="88" y="522" />
            </Array>
          </mxGeometry>
        </mxCell>
        <mxCell id="e3mRQ9NL9h4Ew3IdF5mW-102" value="" style="html=1;points=[[0,0,0,0,5],[0,1,0,0,-5],[1,0,0,0,5],[1,1,0,0,-5]];perimeter=orthogonalPerimeter;outlineConnect=0;targetShapes=umlLifeline;portConstraint=eastwest;newEdgeStyle={&quot;curved&quot;:0,&quot;rounded&quot;:0};" vertex="1" parent="e3mRQ9NL9h4Ew3IdF5mW-33">
          <mxGeometry x="45" y="647" width="10" height="92" as="geometry" />
        </mxCell>
        <mxCell id="e3mRQ9NL9h4Ew3IdF5mW-112" value="" style="html=1;points=[[0,0,0,0,5],[0,1,0,0,-5],[1,0,0,0,5],[1,1,0,0,-5]];perimeter=orthogonalPerimeter;outlineConnect=0;targetShapes=umlLifeline;portConstraint=eastwest;newEdgeStyle={&quot;curved&quot;:0,&quot;rounded&quot;:0};" vertex="1" parent="e3mRQ9NL9h4Ew3IdF5mW-33">
          <mxGeometry x="45" y="792" width="10" height="80" as="geometry" />
        </mxCell>
        <mxCell id="e3mRQ9NL9h4Ew3IdF5mW-127" value="" style="html=1;points=[[0,0,0,0,5],[0,1,0,0,-5],[1,0,0,0,5],[1,1,0,0,-5]];perimeter=orthogonalPerimeter;outlineConnect=0;targetShapes=umlLifeline;portConstraint=eastwest;newEdgeStyle={&quot;curved&quot;:0,&quot;rounded&quot;:0};" vertex="1" parent="e3mRQ9NL9h4Ew3IdF5mW-33">
          <mxGeometry x="45" y="915" width="10" height="80" as="geometry" />
        </mxCell>
        <mxCell id="e3mRQ9NL9h4Ew3IdF5mW-34" value="动捕模块" style="shape=umlLifeline;perimeter=lifelinePerimeter;whiteSpace=wrap;html=1;container=1;dropTarget=0;collapsible=0;recursiveResize=0;outlineConnect=0;portConstraint=eastwest;newEdgeStyle={&quot;curved&quot;:0,&quot;rounded&quot;:0};" vertex="1" parent="1">
          <mxGeometry x="371" y="1284" width="100" height="1028" as="geometry" />
        </mxCell>
        <mxCell id="e3mRQ9NL9h4Ew3IdF5mW-54" value="" style="html=1;points=[[0,0,0,0,5],[0,1,0,0,-5],[1,0,0,0,5],[1,1,0,0,-5]];perimeter=orthogonalPerimeter;outlineConnect=0;targetShapes=umlLifeline;portConstraint=eastwest;newEdgeStyle={&quot;curved&quot;:0,&quot;rounded&quot;:0};" vertex="1" parent="e3mRQ9NL9h4Ew3IdF5mW-34">
          <mxGeometry x="44" y="310" width="10" height="52" as="geometry" />
        </mxCell>
        <mxCell id="e3mRQ9NL9h4Ew3IdF5mW-62" value="" style="html=1;points=[[0,0,0,0,5],[0,1,0,0,-5],[1,0,0,0,5],[1,1,0,0,-5]];perimeter=orthogonalPerimeter;outlineConnect=0;targetShapes=umlLifeline;portConstraint=eastwest;newEdgeStyle={&quot;curved&quot;:0,&quot;rounded&quot;:0};" vertex="1" parent="e3mRQ9NL9h4Ew3IdF5mW-34">
          <mxGeometry x="49" y="335" width="10" height="14" as="geometry" />
        </mxCell>
        <mxCell id="e3mRQ9NL9h4Ew3IdF5mW-63" value="绑定共享内存" style="html=1;align=left;spacingLeft=2;endArrow=block;rounded=0;edgeStyle=orthogonalEdgeStyle;curved=0;rounded=0;" edge="1" target="e3mRQ9NL9h4Ew3IdF5mW-62" parent="e3mRQ9NL9h4Ew3IdF5mW-34">
          <mxGeometry relative="1" as="geometry">
            <mxPoint x="54" y="315" as="sourcePoint" />
            <Array as="points">
              <mxPoint x="84" y="345" />
            </Array>
          </mxGeometry>
        </mxCell>
        <mxCell id="e3mRQ9NL9h4Ew3IdF5mW-85" value="" style="html=1;points=[[0,0,0,0,5],[0,1,0,0,-5],[1,0,0,0,5],[1,1,0,0,-5]];perimeter=orthogonalPerimeter;outlineConnect=0;targetShapes=umlLifeline;portConstraint=eastwest;newEdgeStyle={&quot;curved&quot;:0,&quot;rounded&quot;:0};" vertex="1" parent="e3mRQ9NL9h4Ew3IdF5mW-34">
          <mxGeometry x="44" y="551" width="10" height="80" as="geometry" />
        </mxCell>
        <mxCell id="e3mRQ9NL9h4Ew3IdF5mW-93" value="" style="html=1;points=[[0,0,0,0,5],[0,1,0,0,-5],[1,0,0,0,5],[1,1,0,0,-5]];perimeter=orthogonalPerimeter;outlineConnect=0;targetShapes=umlLifeline;portConstraint=eastwest;newEdgeStyle={&quot;curved&quot;:0,&quot;rounded&quot;:0};" vertex="1" parent="e3mRQ9NL9h4Ew3IdF5mW-34">
          <mxGeometry x="49" y="578" width="10" height="20" as="geometry" />
        </mxCell>
        <mxCell id="e3mRQ9NL9h4Ew3IdF5mW-94" value="动捕处理" style="html=1;align=left;spacingLeft=2;endArrow=block;rounded=0;edgeStyle=orthogonalEdgeStyle;curved=0;rounded=0;" edge="1" target="e3mRQ9NL9h4Ew3IdF5mW-93" parent="e3mRQ9NL9h4Ew3IdF5mW-34">
          <mxGeometry relative="1" as="geometry">
            <mxPoint x="54" y="558" as="sourcePoint" />
            <Array as="points">
              <mxPoint x="54" y="568" />
              <mxPoint x="84" y="568" />
              <mxPoint x="84" y="588" />
            </Array>
          </mxGeometry>
        </mxCell>
        <mxCell id="e3mRQ9NL9h4Ew3IdF5mW-119" value="" style="html=1;points=[[0,0,0,0,5],[0,1,0,0,-5],[1,0,0,0,5],[1,1,0,0,-5]];perimeter=orthogonalPerimeter;outlineConnect=0;targetShapes=umlLifeline;portConstraint=eastwest;newEdgeStyle={&quot;curved&quot;:0,&quot;rounded&quot;:0};" vertex="1" parent="e3mRQ9NL9h4Ew3IdF5mW-34">
          <mxGeometry x="44" y="802" width="10" height="22" as="geometry" />
        </mxCell>
        <mxCell id="e3mRQ9NL9h4Ew3IdF5mW-130" value="" style="html=1;points=[[0,0,0,0,5],[0,1,0,0,-5],[1,0,0,0,5],[1,1,0,0,-5]];perimeter=orthogonalPerimeter;outlineConnect=0;targetShapes=umlLifeline;portConstraint=eastwest;newEdgeStyle={&quot;curved&quot;:0,&quot;rounded&quot;:0};" vertex="1" parent="e3mRQ9NL9h4Ew3IdF5mW-34">
          <mxGeometry x="44" y="918" width="10" height="38" as="geometry" />
        </mxCell>
        <mxCell id="e3mRQ9NL9h4Ew3IdF5mW-35" value="渲染模块" style="shape=umlLifeline;perimeter=lifelinePerimeter;whiteSpace=wrap;html=1;container=1;dropTarget=0;collapsible=0;recursiveResize=0;outlineConnect=0;portConstraint=eastwest;newEdgeStyle={&quot;curved&quot;:0,&quot;rounded&quot;:0};" vertex="1" parent="1">
          <mxGeometry x="518" y="1284" width="100" height="1042" as="geometry" />
        </mxCell>
        <mxCell id="e3mRQ9NL9h4Ew3IdF5mW-57" value="" style="html=1;points=[[0,0,0,0,5],[0,1,0,0,-5],[1,0,0,0,5],[1,1,0,0,-5]];perimeter=orthogonalPerimeter;outlineConnect=0;targetShapes=umlLifeline;portConstraint=eastwest;newEdgeStyle={&quot;curved&quot;:0,&quot;rounded&quot;:0};" vertex="1" parent="e3mRQ9NL9h4Ew3IdF5mW-35">
          <mxGeometry x="48" y="374" width="10" height="79" as="geometry" />
        </mxCell>
        <mxCell id="e3mRQ9NL9h4Ew3IdF5mW-69" value="" style="html=1;points=[[0,0,0,0,5],[0,1,0,0,-5],[1,0,0,0,5],[1,1,0,0,-5]];perimeter=orthogonalPerimeter;outlineConnect=0;targetShapes=umlLifeline;portConstraint=eastwest;newEdgeStyle={&quot;curved&quot;:0,&quot;rounded&quot;:0};" vertex="1" parent="e3mRQ9NL9h4Ew3IdF5mW-35">
          <mxGeometry x="56" y="386" width="10" height="11" as="geometry" />
        </mxCell>
        <mxCell id="e3mRQ9NL9h4Ew3IdF5mW-70" value="加载模型" style="html=1;align=left;spacingLeft=2;endArrow=block;rounded=0;edgeStyle=orthogonalEdgeStyle;curved=0;rounded=0;" edge="1" target="e3mRQ9NL9h4Ew3IdF5mW-69" parent="e3mRQ9NL9h4Ew3IdF5mW-35" source="e3mRQ9NL9h4Ew3IdF5mW-35">
          <mxGeometry relative="1" as="geometry">
            <mxPoint x="53" y="298" as="sourcePoint" />
            <Array as="points">
              <mxPoint x="110" y="374" />
              <mxPoint x="110" y="392" />
            </Array>
          </mxGeometry>
        </mxCell>
        <mxCell id="e3mRQ9NL9h4Ew3IdF5mW-72" value="" style="html=1;points=[[0,0,0,0,5],[0,1,0,0,-5],[1,0,0,0,5],[1,1,0,0,-5]];perimeter=orthogonalPerimeter;outlineConnect=0;targetShapes=umlLifeline;portConstraint=eastwest;newEdgeStyle={&quot;curved&quot;:0,&quot;rounded&quot;:0};" vertex="1" parent="e3mRQ9NL9h4Ew3IdF5mW-35">
          <mxGeometry x="54" y="428" width="10" height="15" as="geometry" />
        </mxCell>
        <mxCell id="e3mRQ9NL9h4Ew3IdF5mW-73" value="绑定共享内存" style="html=1;align=left;spacingLeft=2;endArrow=block;rounded=0;edgeStyle=orthogonalEdgeStyle;curved=0;rounded=0;" edge="1" target="e3mRQ9NL9h4Ew3IdF5mW-72" parent="e3mRQ9NL9h4Ew3IdF5mW-35">
          <mxGeometry relative="1" as="geometry">
            <mxPoint x="59" y="417" as="sourcePoint" />
            <Array as="points">
              <mxPoint x="107" y="417" />
              <mxPoint x="107" y="436" />
            </Array>
          </mxGeometry>
        </mxCell>
        <mxCell id="e3mRQ9NL9h4Ew3IdF5mW-91" value="" style="html=1;points=[[0,0,0,0,5],[0,1,0,0,-5],[1,0,0,0,5],[1,1,0,0,-5]];perimeter=orthogonalPerimeter;outlineConnect=0;targetShapes=umlLifeline;portConstraint=eastwest;newEdgeStyle={&quot;curved&quot;:0,&quot;rounded&quot;:0};" vertex="1" parent="e3mRQ9NL9h4Ew3IdF5mW-35">
          <mxGeometry x="48" y="636" width="10" height="23" as="geometry" />
        </mxCell>
        <mxCell id="e3mRQ9NL9h4Ew3IdF5mW-92" value="渲染" style="html=1;align=left;spacingLeft=2;endArrow=block;rounded=0;edgeStyle=orthogonalEdgeStyle;curved=0;rounded=0;" edge="1" target="e3mRQ9NL9h4Ew3IdF5mW-91" parent="e3mRQ9NL9h4Ew3IdF5mW-35">
          <mxGeometry relative="1" as="geometry">
            <mxPoint x="56" y="616" as="sourcePoint" />
            <Array as="points">
              <mxPoint x="86" y="646" />
            </Array>
          </mxGeometry>
        </mxCell>
        <mxCell id="e3mRQ9NL9h4Ew3IdF5mW-122" value="" style="html=1;points=[[0,0,0,0,5],[0,1,0,0,-5],[1,0,0,0,5],[1,1,0,0,-5]];perimeter=orthogonalPerimeter;outlineConnect=0;targetShapes=umlLifeline;portConstraint=eastwest;newEdgeStyle={&quot;curved&quot;:0,&quot;rounded&quot;:0};" vertex="1" parent="e3mRQ9NL9h4Ew3IdF5mW-35">
          <mxGeometry x="46" y="843" width="10" height="29" as="geometry" />
        </mxCell>
        <mxCell id="e3mRQ9NL9h4Ew3IdF5mW-133" value="" style="html=1;points=[[0,0,0,0,5],[0,1,0,0,-5],[1,0,0,0,5],[1,1,0,0,-5]];perimeter=orthogonalPerimeter;outlineConnect=0;targetShapes=umlLifeline;portConstraint=eastwest;newEdgeStyle={&quot;curved&quot;:0,&quot;rounded&quot;:0};" vertex="1" parent="e3mRQ9NL9h4Ew3IdF5mW-35">
          <mxGeometry x="45" y="971" width="10" height="35" as="geometry" />
        </mxCell>
        <mxCell id="e3mRQ9NL9h4Ew3IdF5mW-36" value="共享内存" style="shape=umlLifeline;perimeter=lifelinePerimeter;whiteSpace=wrap;html=1;container=1;dropTarget=0;collapsible=0;recursiveResize=0;outlineConnect=0;portConstraint=eastwest;newEdgeStyle={&quot;curved&quot;:0,&quot;rounded&quot;:0};" vertex="1" parent="1">
          <mxGeometry x="670" y="1282" width="100" height="1019" as="geometry" />
        </mxCell>
        <mxCell id="e3mRQ9NL9h4Ew3IdF5mW-82" value="" style="html=1;points=[[0,0,0,0,5],[0,1,0,0,-5],[1,0,0,0,5],[1,1,0,0,-5]];perimeter=orthogonalPerimeter;outlineConnect=0;targetShapes=umlLifeline;portConstraint=eastwest;newEdgeStyle={&quot;curved&quot;:0,&quot;rounded&quot;:0};" vertex="1" parent="e3mRQ9NL9h4Ew3IdF5mW-36">
          <mxGeometry x="45" y="526" width="10" height="21" as="geometry" />
        </mxCell>
        <mxCell id="e3mRQ9NL9h4Ew3IdF5mW-95" value="" style="html=1;points=[[0,0,0,0,5],[0,1,0,0,-5],[1,0,0,0,5],[1,1,0,0,-5]];perimeter=orthogonalPerimeter;outlineConnect=0;targetShapes=umlLifeline;portConstraint=eastwest;newEdgeStyle={&quot;curved&quot;:0,&quot;rounded&quot;:0};" vertex="1" parent="e3mRQ9NL9h4Ew3IdF5mW-36">
          <mxGeometry x="45" y="557" width="10" height="16" as="geometry" />
        </mxCell>
        <mxCell id="e3mRQ9NL9h4Ew3IdF5mW-96" value="读数据" style="html=1;verticalAlign=bottom;endArrow=block;curved=0;rounded=0;entryX=0;entryY=0;entryDx=0;entryDy=5;" edge="1" target="e3mRQ9NL9h4Ew3IdF5mW-95" parent="e3mRQ9NL9h4Ew3IdF5mW-36">
          <mxGeometry relative="1" as="geometry">
            <mxPoint x="-247" y="561" as="sourcePoint" />
          </mxGeometry>
        </mxCell>
        <mxCell id="e3mRQ9NL9h4Ew3IdF5mW-99" value="" style="html=1;points=[[0,0,0,0,5],[0,1,0,0,-5],[1,0,0,0,5],[1,1,0,0,-5]];perimeter=orthogonalPerimeter;outlineConnect=0;targetShapes=umlLifeline;portConstraint=eastwest;newEdgeStyle={&quot;curved&quot;:0,&quot;rounded&quot;:0};" vertex="1" parent="e3mRQ9NL9h4Ew3IdF5mW-36">
          <mxGeometry x="43" y="660" width="10" height="22" as="geometry" />
        </mxCell>
        <mxCell id="e3mRQ9NL9h4Ew3IdF5mW-108" value="" style="html=1;points=[[0,0,0,0,5],[0,1,0,0,-5],[1,0,0,0,5],[1,1,0,0,-5]];perimeter=orthogonalPerimeter;outlineConnect=0;targetShapes=umlLifeline;portConstraint=eastwest;newEdgeStyle={&quot;curved&quot;:0,&quot;rounded&quot;:0};" vertex="1" parent="e3mRQ9NL9h4Ew3IdF5mW-36">
          <mxGeometry x="45" y="697" width="10" height="26" as="geometry" />
        </mxCell>
        <mxCell id="e3mRQ9NL9h4Ew3IdF5mW-116" value="" style="html=1;points=[[0,0,0,0,5],[0,1,0,0,-5],[1,0,0,0,5],[1,1,0,0,-5]];perimeter=orthogonalPerimeter;outlineConnect=0;targetShapes=umlLifeline;portConstraint=eastwest;newEdgeStyle={&quot;curved&quot;:0,&quot;rounded&quot;:0};" vertex="1" parent="e3mRQ9NL9h4Ew3IdF5mW-36">
          <mxGeometry x="45" y="786" width="10" height="24" as="geometry" />
        </mxCell>
        <mxCell id="e3mRQ9NL9h4Ew3IdF5mW-42" value="创建数字人服务" style="html=1;verticalAlign=bottom;endArrow=block;curved=0;rounded=0;entryX=0;entryY=0;entryDx=0;entryDy=5;" edge="1" target="e3mRQ9NL9h4Ew3IdF5mW-41" parent="1" source="e3mRQ9NL9h4Ew3IdF5mW-32">
          <mxGeometry relative="1" as="geometry">
            <mxPoint x="184" y="1452" as="sourcePoint" />
          </mxGeometry>
        </mxCell>
        <mxCell id="e3mRQ9NL9h4Ew3IdF5mW-43" value="return" style="html=1;verticalAlign=bottom;endArrow=open;dashed=1;endSize=8;curved=0;rounded=0;exitX=0;exitY=1;exitDx=0;exitDy=-5;" edge="1" source="e3mRQ9NL9h4Ew3IdF5mW-41" parent="1" target="e3mRQ9NL9h4Ew3IdF5mW-32">
          <mxGeometry relative="1" as="geometry">
            <mxPoint x="184" y="1522" as="targetPoint" />
          </mxGeometry>
        </mxCell>
        <mxCell id="e3mRQ9NL9h4Ew3IdF5mW-52" value="启动数字人服务" style="html=1;verticalAlign=bottom;endArrow=block;curved=0;rounded=0;entryX=0;entryY=0;entryDx=0;entryDy=5;" edge="1" target="e3mRQ9NL9h4Ew3IdF5mW-51" parent="1" source="e3mRQ9NL9h4Ew3IdF5mW-32">
          <mxGeometry relative="1" as="geometry">
            <mxPoint x="186" y="1631" as="sourcePoint" />
          </mxGeometry>
        </mxCell>
        <mxCell id="e3mRQ9NL9h4Ew3IdF5mW-53" value="return" style="html=1;verticalAlign=bottom;endArrow=open;dashed=1;endSize=8;curved=0;rounded=0;exitX=0;exitY=1;exitDx=0;exitDy=-5;" edge="1" source="e3mRQ9NL9h4Ew3IdF5mW-51" parent="1" target="e3mRQ9NL9h4Ew3IdF5mW-32">
          <mxGeometry relative="1" as="geometry">
            <mxPoint x="186" y="1701" as="targetPoint" />
          </mxGeometry>
        </mxCell>
        <mxCell id="e3mRQ9NL9h4Ew3IdF5mW-56" value="return" style="html=1;verticalAlign=bottom;endArrow=open;dashed=1;endSize=8;curved=0;rounded=0;exitX=0;exitY=1;exitDx=0;exitDy=-5;" edge="1" source="e3mRQ9NL9h4Ew3IdF5mW-54" parent="1" target="e3mRQ9NL9h4Ew3IdF5mW-33">
          <mxGeometry relative="1" as="geometry">
            <mxPoint x="347" y="1668" as="targetPoint" />
          </mxGeometry>
        </mxCell>
        <mxCell id="e3mRQ9NL9h4Ew3IdF5mW-55" value="启动命令" style="html=1;verticalAlign=bottom;endArrow=block;curved=0;rounded=0;entryX=0;entryY=0;entryDx=0;entryDy=5;" edge="1" target="e3mRQ9NL9h4Ew3IdF5mW-54" parent="1" source="e3mRQ9NL9h4Ew3IdF5mW-33">
          <mxGeometry relative="1" as="geometry">
            <mxPoint x="347" y="1598" as="sourcePoint" />
          </mxGeometry>
        </mxCell>
        <mxCell id="e3mRQ9NL9h4Ew3IdF5mW-59" value="return" style="html=1;verticalAlign=bottom;endArrow=open;dashed=1;endSize=8;curved=0;rounded=0;exitX=0;exitY=1;exitDx=0;exitDy=-5;" edge="1" parent="1" source="e3mRQ9NL9h4Ew3IdF5mW-57" target="e3mRQ9NL9h4Ew3IdF5mW-33">
          <mxGeometry relative="1" as="geometry">
            <mxPoint x="492" y="1813" as="targetPoint" />
          </mxGeometry>
        </mxCell>
        <mxCell id="e3mRQ9NL9h4Ew3IdF5mW-58" value="启动命令" style="html=1;verticalAlign=bottom;endArrow=block;curved=0;rounded=0;entryX=0;entryY=0;entryDx=0;entryDy=5;" edge="1" parent="1" target="e3mRQ9NL9h4Ew3IdF5mW-57" source="e3mRQ9NL9h4Ew3IdF5mW-33">
          <mxGeometry relative="1" as="geometry">
            <mxPoint x="492" y="1743" as="sourcePoint" />
          </mxGeometry>
        </mxCell>
        <mxCell id="e3mRQ9NL9h4Ew3IdF5mW-76" value="服务执行" style="html=1;verticalAlign=bottom;endArrow=block;curved=0;rounded=0;entryX=0;entryY=0;entryDx=0;entryDy=5;" edge="1" target="e3mRQ9NL9h4Ew3IdF5mW-75" parent="1" source="e3mRQ9NL9h4Ew3IdF5mW-32">
          <mxGeometry relative="1" as="geometry">
            <mxPoint x="186" y="1771" as="sourcePoint" />
            <mxPoint as="offset" />
          </mxGeometry>
        </mxCell>
        <mxCell id="e3mRQ9NL9h4Ew3IdF5mW-83" value="数据写入共享内存" style="html=1;verticalAlign=bottom;endArrow=block;curved=0;rounded=0;entryX=0;entryY=0;entryDx=0;entryDy=5;" edge="1" parent="1">
          <mxGeometry relative="1" as="geometry">
            <mxPoint x="268" y="1820" as="sourcePoint" />
            <mxPoint x="715" y="1818" as="targetPoint" />
          </mxGeometry>
        </mxCell>
        <mxCell id="e3mRQ9NL9h4Ew3IdF5mW-86" value="处理" style="html=1;verticalAlign=bottom;endArrow=block;curved=0;rounded=0;entryX=0;entryY=0;entryDx=0;entryDy=5;exitX=1;exitY=1;exitDx=0;exitDy=-5;exitPerimeter=0;" edge="1" target="e3mRQ9NL9h4Ew3IdF5mW-85" parent="1" source="e3mRQ9NL9h4Ew3IdF5mW-75">
          <mxGeometry relative="1" as="geometry">
            <mxPoint x="266" y="1836" as="sourcePoint" />
          </mxGeometry>
        </mxCell>
        <mxCell id="e3mRQ9NL9h4Ew3IdF5mW-88" value="" style="html=1;points=[[0,0,0,0,5],[0,1,0,0,-5],[1,0,0,0,5],[1,1,0,0,-5]];perimeter=orthogonalPerimeter;outlineConnect=0;targetShapes=umlLifeline;portConstraint=eastwest;newEdgeStyle={&quot;curved&quot;:0,&quot;rounded&quot;:0};" vertex="1" parent="1">
          <mxGeometry x="562" y="1896" width="10" height="68" as="geometry" />
        </mxCell>
        <mxCell id="e3mRQ9NL9h4Ew3IdF5mW-89" value="处理" style="html=1;verticalAlign=bottom;endArrow=block;curved=0;rounded=0;entryX=0;entryY=0;entryDx=0;entryDy=5;" edge="1" target="e3mRQ9NL9h4Ew3IdF5mW-88" parent="1" source="e3mRQ9NL9h4Ew3IdF5mW-34">
          <mxGeometry relative="1" as="geometry">
            <mxPoint x="492" y="1901" as="sourcePoint" />
          </mxGeometry>
        </mxCell>
        <mxCell id="e3mRQ9NL9h4Ew3IdF5mW-90" value="return" style="html=1;verticalAlign=bottom;endArrow=open;dashed=1;endSize=8;curved=0;rounded=0;" edge="1" parent="1">
          <mxGeometry relative="1" as="geometry">
            <mxPoint x="258.5" y="1955" as="targetPoint" />
            <mxPoint x="560" y="1955" as="sourcePoint" />
          </mxGeometry>
        </mxCell>
        <mxCell id="e3mRQ9NL9h4Ew3IdF5mW-100" value="写数据" style="html=1;verticalAlign=bottom;endArrow=block;curved=0;rounded=0;entryX=0;entryY=0;entryDx=0;entryDy=5;" edge="1" target="e3mRQ9NL9h4Ew3IdF5mW-99" parent="1">
          <mxGeometry relative="1" as="geometry">
            <mxPoint x="573" y="1947" as="sourcePoint" />
          </mxGeometry>
        </mxCell>
        <mxCell id="e3mRQ9NL9h4Ew3IdF5mW-109" value="读取数据" style="html=1;verticalAlign=bottom;endArrow=block;curved=0;rounded=0;entryX=0;entryY=0;entryDx=0;entryDy=5;" edge="1" target="e3mRQ9NL9h4Ew3IdF5mW-108" parent="1" source="e3mRQ9NL9h4Ew3IdF5mW-33">
          <mxGeometry relative="1" as="geometry">
            <mxPoint x="645" y="1984" as="sourcePoint" />
          </mxGeometry>
        </mxCell>
        <mxCell id="e3mRQ9NL9h4Ew3IdF5mW-104" value="callback" style="html=1;verticalAlign=bottom;endArrow=open;dashed=1;endSize=8;curved=0;rounded=0;exitX=0;exitY=1;exitDx=0;exitDy=-5;" edge="1" source="e3mRQ9NL9h4Ew3IdF5mW-102" parent="1" target="e3mRQ9NL9h4Ew3IdF5mW-32">
          <mxGeometry relative="1" as="geometry">
            <mxPoint x="186" y="2006" as="targetPoint" />
          </mxGeometry>
        </mxCell>
        <mxCell id="e3mRQ9NL9h4Ew3IdF5mW-113" value="停止服务" style="html=1;verticalAlign=bottom;endArrow=block;curved=0;rounded=0;entryX=0;entryY=0;entryDx=0;entryDy=5;" edge="1" target="e3mRQ9NL9h4Ew3IdF5mW-112" parent="1" source="e3mRQ9NL9h4Ew3IdF5mW-32">
          <mxGeometry x="0.0034" relative="1" as="geometry">
            <mxPoint x="186" y="2081" as="sourcePoint" />
            <mxPoint as="offset" />
          </mxGeometry>
        </mxCell>
        <mxCell id="e3mRQ9NL9h4Ew3IdF5mW-114" value="return" style="html=1;verticalAlign=bottom;endArrow=open;dashed=1;endSize=8;curved=0;rounded=0;exitX=0;exitY=1;exitDx=0;exitDy=-5;" edge="1" source="e3mRQ9NL9h4Ew3IdF5mW-112" parent="1" target="e3mRQ9NL9h4Ew3IdF5mW-32">
          <mxGeometry relative="1" as="geometry">
            <mxPoint x="186" y="2151" as="targetPoint" />
          </mxGeometry>
        </mxCell>
        <mxCell id="e3mRQ9NL9h4Ew3IdF5mW-117" value="共享内存重置" style="html=1;verticalAlign=bottom;endArrow=block;curved=0;rounded=0;entryX=0;entryY=0;entryDx=0;entryDy=5;" edge="1" target="e3mRQ9NL9h4Ew3IdF5mW-116" parent="1" source="e3mRQ9NL9h4Ew3IdF5mW-112">
          <mxGeometry relative="1" as="geometry">
            <mxPoint x="645" y="2073" as="sourcePoint" />
          </mxGeometry>
        </mxCell>
        <mxCell id="e3mRQ9NL9h4Ew3IdF5mW-120" value="停止" style="html=1;verticalAlign=bottom;endArrow=block;curved=0;rounded=0;entryX=0;entryY=0;entryDx=0;entryDy=5;" edge="1" target="e3mRQ9NL9h4Ew3IdF5mW-119" parent="1" source="e3mRQ9NL9h4Ew3IdF5mW-33">
          <mxGeometry relative="1" as="geometry">
            <mxPoint x="345" y="2091" as="sourcePoint" />
          </mxGeometry>
        </mxCell>
        <mxCell id="e3mRQ9NL9h4Ew3IdF5mW-124" value="return" style="html=1;verticalAlign=bottom;endArrow=open;dashed=1;endSize=8;curved=0;rounded=0;exitX=0;exitY=1;exitDx=0;exitDy=-5;" edge="1" source="e3mRQ9NL9h4Ew3IdF5mW-122" parent="1" target="e3mRQ9NL9h4Ew3IdF5mW-33">
          <mxGeometry relative="1" as="geometry">
            <mxPoint x="494" y="2202" as="targetPoint" />
          </mxGeometry>
        </mxCell>
        <mxCell id="e3mRQ9NL9h4Ew3IdF5mW-123" value="停止" style="html=1;verticalAlign=bottom;endArrow=block;curved=0;rounded=0;entryX=0;entryY=0;entryDx=0;entryDy=5;" edge="1" target="e3mRQ9NL9h4Ew3IdF5mW-122" parent="1" source="e3mRQ9NL9h4Ew3IdF5mW-112">
          <mxGeometry relative="1" as="geometry">
            <mxPoint x="494" y="2132" as="sourcePoint" />
          </mxGeometry>
        </mxCell>
        <mxCell id="e3mRQ9NL9h4Ew3IdF5mW-125" value="return" style="html=1;verticalAlign=bottom;endArrow=open;dashed=1;endSize=8;curved=0;rounded=0;exitX=0;exitY=1;exitDx=0;exitDy=-5;exitPerimeter=0;" edge="1" parent="1" source="e3mRQ9NL9h4Ew3IdF5mW-119" target="e3mRQ9NL9h4Ew3IdF5mW-33">
          <mxGeometry relative="1" as="geometry">
            <mxPoint x="271" y="2161" as="targetPoint" />
            <mxPoint x="574" y="2161" as="sourcePoint" />
          </mxGeometry>
        </mxCell>
        <mxCell id="e3mRQ9NL9h4Ew3IdF5mW-131" value="销毁" style="html=1;verticalAlign=bottom;endArrow=block;curved=0;rounded=0;entryX=0;entryY=0;entryDx=0;entryDy=5;" edge="1" target="e3mRQ9NL9h4Ew3IdF5mW-130" parent="1" source="e3mRQ9NL9h4Ew3IdF5mW-33">
          <mxGeometry relative="1" as="geometry">
            <mxPoint x="345" y="2207" as="sourcePoint" />
          </mxGeometry>
        </mxCell>
        <mxCell id="e3mRQ9NL9h4Ew3IdF5mW-132" value="return" style="html=1;verticalAlign=bottom;endArrow=open;dashed=1;endSize=8;curved=0;rounded=0;exitX=0;exitY=1;exitDx=0;exitDy=-5;" edge="1" source="e3mRQ9NL9h4Ew3IdF5mW-130" parent="1" target="e3mRQ9NL9h4Ew3IdF5mW-33">
          <mxGeometry relative="1" as="geometry">
            <mxPoint x="345" y="2277" as="targetPoint" />
          </mxGeometry>
        </mxCell>
        <mxCell id="e3mRQ9NL9h4Ew3IdF5mW-134" value="销毁" style="html=1;verticalAlign=bottom;endArrow=block;curved=0;rounded=0;entryX=0;entryY=0;entryDx=0;entryDy=5;" edge="1" target="e3mRQ9NL9h4Ew3IdF5mW-133" parent="1">
          <mxGeometry relative="1" as="geometry">
            <mxPoint x="270" y="2260" as="sourcePoint" />
          </mxGeometry>
        </mxCell>
        <mxCell id="e3mRQ9NL9h4Ew3IdF5mW-135" value="return" style="html=1;verticalAlign=bottom;endArrow=open;dashed=1;endSize=8;curved=0;rounded=0;" edge="1" source="e3mRQ9NL9h4Ew3IdF5mW-133" parent="1" target="e3mRQ9NL9h4Ew3IdF5mW-33">
          <mxGeometry relative="1" as="geometry">
            <mxPoint x="494" y="2321" as="targetPoint" />
          </mxGeometry>
        </mxCell>
        <mxCell id="e3mRQ9NL9h4Ew3IdF5mW-128" value="销毁服务" style="html=1;verticalAlign=bottom;endArrow=block;curved=0;rounded=0;entryX=0;entryY=0;entryDx=0;entryDy=5;" edge="1" target="e3mRQ9NL9h4Ew3IdF5mW-127" parent="1" source="e3mRQ9NL9h4Ew3IdF5mW-32">
          <mxGeometry relative="1" as="geometry">
            <mxPoint x="186" y="2204" as="sourcePoint" />
          </mxGeometry>
        </mxCell>
        <mxCell id="e3mRQ9NL9h4Ew3IdF5mW-129" value="return" style="html=1;verticalAlign=bottom;endArrow=open;dashed=1;endSize=8;curved=0;rounded=0;exitX=0;exitY=1;exitDx=0;exitDy=-5;" edge="1" source="e3mRQ9NL9h4Ew3IdF5mW-127" parent="1" target="e3mRQ9NL9h4Ew3IdF5mW-32">
          <mxGeometry relative="1" as="geometry">
            <mxPoint x="186" y="2274" as="targetPoint" />
          </mxGeometry>
        </mxCell>
        <mxCell id="e3mRQ9NL9h4Ew3IdF5mW-137" value="input(128x128)" style="rounded=1;whiteSpace=wrap;html=1;" vertex="1" parent="1">
          <mxGeometry x="78" y="2499.5" width="119" height="34" as="geometry" />
        </mxCell>
        <mxCell id="e3mRQ9NL9h4Ew3IdF5mW-138" value="CONV(16x3x7x7)" style="rounded=1;whiteSpace=wrap;html=1;" vertex="1" parent="1">
          <mxGeometry x="78" y="2562.5" width="119" height="34" as="geometry" />
        </mxCell>
        <mxCell id="e3mRQ9NL9h4Ew3IdF5mW-139" value="relu" style="rounded=1;whiteSpace=wrap;html=1;" vertex="1" parent="1">
          <mxGeometry x="330" y="2587" width="119" height="31" as="geometry" />
        </mxCell>
        <mxCell id="e3mRQ9NL9h4Ew3IdF5mW-140" value="CONV(NxCxWxH)" style="rounded=1;whiteSpace=wrap;html=1;" vertex="1" parent="1">
          <mxGeometry x="328" y="2531" width="119" height="34" as="geometry" />
        </mxCell>
        <mxCell id="e3mRQ9NL9h4Ew3IdF5mW-144" value="N:卷积核的个数" style="text;html=1;align=center;verticalAlign=middle;whiteSpace=wrap;rounded=0;" vertex="1" parent="1">
          <mxGeometry x="334" y="2626" width="118" height="30" as="geometry" />
        </mxCell>
        <mxCell id="e3mRQ9NL9h4Ew3IdF5mW-145" value="C:卷积核通道数" style="text;html=1;align=center;verticalAlign=middle;whiteSpace=wrap;rounded=0;" vertex="1" parent="1">
          <mxGeometry x="334" y="2650" width="118" height="30" as="geometry" />
        </mxCell>
        <mxCell id="e3mRQ9NL9h4Ew3IdF5mW-146" value="W:卷积核宽" style="text;html=1;align=center;verticalAlign=middle;whiteSpace=wrap;rounded=0;" vertex="1" parent="1">
          <mxGeometry x="323" y="2675" width="118" height="30" as="geometry" />
        </mxCell>
        <mxCell id="e3mRQ9NL9h4Ew3IdF5mW-147" value="H:卷积核高" style="text;html=1;align=center;verticalAlign=middle;whiteSpace=wrap;rounded=0;" vertex="1" parent="1">
          <mxGeometry x="324" y="2701" width="118" height="30" as="geometry" />
        </mxCell>
        <mxCell id="e3mRQ9NL9h4Ew3IdF5mW-148" value="CONV BLOCK1" style="text;html=1;align=center;verticalAlign=middle;whiteSpace=wrap;rounded=0;" vertex="1" parent="1">
          <mxGeometry x="316" y="2490" width="96" height="30" as="geometry" />
        </mxCell>
        <mxCell id="e3mRQ9NL9h4Ew3IdF5mW-149" value="" style="rounded=1;whiteSpace=wrap;html=1;" vertex="1" parent="1">
          <mxGeometry x="492" y="2522" width="159" height="212" as="geometry" />
        </mxCell>
        <mxCell id="e3mRQ9NL9h4Ew3IdF5mW-150" value="relu" style="rounded=1;whiteSpace=wrap;html=1;" vertex="1" parent="1">
          <mxGeometry x="508.5" y="2587" width="119" height="31" as="geometry" />
        </mxCell>
        <mxCell id="e3mRQ9NL9h4Ew3IdF5mW-151" value="CONV(NxCxWxH)" style="rounded=1;whiteSpace=wrap;html=1;" vertex="1" parent="1">
          <mxGeometry x="506.5" y="2531" width="119" height="34" as="geometry" />
        </mxCell>
        <mxCell id="e3mRQ9NL9h4Ew3IdF5mW-152" value="N:卷积核的个数" style="text;html=1;align=center;verticalAlign=middle;whiteSpace=wrap;rounded=0;" vertex="1" parent="1">
          <mxGeometry x="512.5" y="2626" width="118" height="30" as="geometry" />
        </mxCell>
        <mxCell id="e3mRQ9NL9h4Ew3IdF5mW-153" value="C:卷积核通道数" style="text;html=1;align=center;verticalAlign=middle;whiteSpace=wrap;rounded=0;" vertex="1" parent="1">
          <mxGeometry x="512.5" y="2650" width="118" height="30" as="geometry" />
        </mxCell>
        <mxCell id="e3mRQ9NL9h4Ew3IdF5mW-154" value="W:卷积核宽" style="text;html=1;align=center;verticalAlign=middle;whiteSpace=wrap;rounded=0;" vertex="1" parent="1">
          <mxGeometry x="501.5" y="2675" width="118" height="30" as="geometry" />
        </mxCell>
        <mxCell id="e3mRQ9NL9h4Ew3IdF5mW-155" value="H:卷积核高" style="text;html=1;align=center;verticalAlign=middle;whiteSpace=wrap;rounded=0;" vertex="1" parent="1">
          <mxGeometry x="502.5" y="2701" width="118" height="30" as="geometry" />
        </mxCell>
        <mxCell id="e3mRQ9NL9h4Ew3IdF5mW-156" value="CONV BLOCK2" style="text;html=1;align=center;verticalAlign=middle;whiteSpace=wrap;rounded=0;" vertex="1" parent="1">
          <mxGeometry x="494.5" y="2490" width="96" height="30" as="geometry" />
        </mxCell>
      </root>
    </mxGraphModel>
  </diagram>
</mxfile>
